<?xml version="1.0" encoding="UTF-8"?>
<svg id="Layer_2" data-name="Layer 2" xmlns="http://www.w3.org/2000/svg" viewBox="0 0 4107 14.69">
  <g id="Layer_1-2" data-name="Layer 1">
    <path d="m4107,13.69v1c-3.7,0-5.5-3.62-7.23-7.12-1.68-3.38-3.26-6.57-6.34-6.57s-4.66,3.19-6.33,6.57c-1.74,3.5-3.53,7.12-7.24,7.12s-5.49-3.62-7.22-7.12c-1.68-3.38-3.26-6.57-6.34-6.57s-4.66,3.19-6.33,6.57c-1.73,3.5-3.53,7.12-7.23,7.12s-5.49-3.62-7.23-7.12c-1.67-3.38-3.25-6.57-6.33-6.57s-4.65,3.19-6.33,6.57c-1.73,3.5-3.52,7.12-7.22,7.12s-5.5-3.62-7.23-7.12c-1.67-3.38-3.25-6.57-6.33-6.57s-4.66,3.19-6.33,6.57c-1.74,3.5-3.53,7.12-7.23,7.12s-5.49-3.62-7.23-7.12c-1.67-3.38-3.25-6.57-6.33-6.57s-4.66,3.19-6.33,6.57c-1.73,3.5-3.53,7.12-7.23,7.12s-5.49-3.62-7.22-7.12c-1.68-3.38-3.26-6.57-6.34-6.57s-4.65,3.19-6.33,6.57c-1.73,3.5-3.52,7.12-7.22,7.12s-5.49-3.62-7.23-7.12c-1.67-3.38-3.25-6.57-6.33-6.57s-4.66,3.19-6.33,6.57c-1.73,3.5-3.53,7.12-7.23,7.12s-5.49-3.62-7.22-7.12c-1.67-3.38-3.25-6.57-6.33-6.57s-4.66,3.19-6.33,6.57c-1.73,3.5-3.53,7.12-7.22,7.12s-5.5-3.62-7.23-7.12c-1.67-3.38-3.25-6.57-6.33-6.57s-4.66,3.19-6.33,6.57c-1.74,3.5-3.53,7.12-7.23,7.12s-5.49-3.62-7.23-7.12c-1.67-3.38-3.25-6.57-6.33-6.57s-4.65,3.19-6.33,6.57c-1.73,3.5-3.52,7.12-7.22,7.12s-5.49-3.62-7.23-7.12c-1.67-3.38-3.25-6.57-6.33-6.57s-4.66,3.19-6.33,6.57c-1.73,3.5-3.53,7.12-7.23,7.12s-5.49-3.62-7.22-7.12c-1.67-3.38-3.25-6.57-6.33-6.57s-4.66,3.19-6.33,6.57c-1.74,3.5-3.53,7.12-7.23,7.12s-5.49-3.62-7.22-7.12c-1.68-3.38-3.26-6.57-6.34-6.57s-4.65,3.19-6.33,6.57c-1.73,3.5-3.52,7.12-7.22,7.12s-5.49-3.62-7.23-7.12c-1.67-3.38-3.25-6.57-6.33-6.57s-4.65,3.19-6.33,6.57c-1.73,3.5-3.52,7.12-7.22,7.12s-5.5-3.62-7.23-7.12c-1.67-3.38-3.25-6.57-6.33-6.57s-4.66,3.19-6.33,6.57c-1.73,3.5-3.53,7.12-7.23,7.12s-5.49-3.62-7.22-7.12c-1.67-3.38-3.25-6.57-6.33-6.57s-4.66,3.19-6.33,6.57c-1.73,3.5-3.53,7.12-7.23,7.12s-5.49-3.62-7.22-7.12c-1.67-3.38-3.25-6.57-6.33-6.57s-4.66,3.19-6.33,6.57c-1.73,3.5-3.52,7.12-7.22,7.12s-5.5-3.62-7.23-7.12c-1.67-3.38-3.25-6.57-6.33-6.57s-4.66,3.19-6.33,6.57c-1.73,3.5-3.52,7.12-7.22,7.12s-5.49-3.62-7.23-7.12c-1.67-3.38-3.25-6.57-6.33-6.57s-4.65,3.19-6.33,6.57c-1.73,3.5-3.52,7.12-7.22,7.12s-5.49-3.62-7.23-7.12c-1.67-3.38-3.25-6.57-6.32-6.57s-4.66,3.19-6.33,6.57c-1.74,3.5-3.53,7.12-7.23,7.12s-5.49-3.62-7.22-7.12c-1.67-3.38-3.25-6.57-6.33-6.57s-4.66,3.19-6.33,6.57c-1.73,3.5-3.52,7.12-7.22,7.12s-5.49-3.62-7.23-7.12c-1.67-3.38-3.25-6.57-6.33-6.57s-4.65,3.19-6.33,6.57c-1.73,3.5-3.52,7.12-7.22,7.12s-5.49-3.62-7.23-7.12c-1.67-3.38-3.25-6.57-6.32-6.57s-4.66,3.19-6.33,6.57c-1.73,3.5-3.53,7.12-7.22,7.12s-5.49-3.62-7.23-7.12c-1.67-3.38-3.25-6.57-6.33-6.57s-4.65,3.19-6.33,6.57c-1.73,3.5-3.52,7.12-7.22,7.12s-5.49-3.62-7.23-7.12c-1.67-3.38-3.25-6.57-6.32-6.57s-4.66,3.19-6.33,6.57c-1.73,3.5-3.52,7.12-7.22,7.12s-5.49-3.62-7.23-7.12c-1.67-3.38-3.25-6.57-6.32-6.57s-4.66,3.19-6.33,6.57c-1.74,3.5-3.53,7.12-7.23,7.12s-5.49-3.62-7.22-7.12c-1.67-3.38-3.25-6.57-6.33-6.57s-4.66,3.19-6.33,6.57c-1.73,3.5-3.52,7.12-7.22,7.12s-5.49-3.62-7.22-7.12c-1.67-3.38-3.25-6.57-6.33-6.57s-4.65,3.19-6.32,6.57c-1.74,3.5-3.53,7.12-7.23,7.12s-5.49-3.62-7.22-7.12c-1.67-3.38-3.25-6.57-6.33-6.57s-4.66,3.19-6.33,6.57c-1.73,3.5-3.53,7.12-7.22,7.12s-5.5-3.62-7.23-7.12c-1.67-3.38-3.25-6.57-6.33-6.57s-4.65,3.19-6.33,6.57c-1.73,3.5-3.52,7.12-7.22,7.12s-5.49-3.62-7.23-7.12c-1.67-3.38-3.25-6.57-6.33-6.57s-4.65,3.19-6.33,6.57c-1.73,3.5-3.52,7.12-7.22,7.12s-5.49-3.62-7.22-7.12c-1.68-3.38-3.26-6.57-6.33-6.57s-4.66,3.19-6.33,6.57c-1.74,3.5-3.53,7.12-7.23,7.12s-5.49-3.62-7.22-7.12c-1.67-3.38-3.25-6.57-6.33-6.57s-4.66,3.19-6.33,6.57c-1.73,3.5-3.53,7.12-7.22,7.12s-5.5-3.62-7.23-7.12c-1.67-3.38-3.25-6.57-6.33-6.57s-4.66,3.19-6.33,6.57c-1.73,3.5-3.52,7.12-7.22,7.12s-5.49-3.62-7.23-7.12c-1.67-3.38-3.25-6.57-6.33-6.57s-4.65,3.19-6.32,6.57c-1.74,3.5-3.53,7.12-7.23,7.12s-5.49-3.62-7.23-7.12c-1.67-3.38-3.25-6.57-6.32-6.57s-4.66,3.19-6.33,6.57c-1.74,3.5-3.53,7.12-7.23,7.12s-5.49-3.62-7.22-7.12c-1.67-3.38-3.25-6.57-6.33-6.57s-4.66,3.19-6.33,6.57c-1.73,3.5-3.53,7.12-7.22,7.12s-5.5-3.62-7.23-7.12c-1.67-3.38-3.25-6.57-6.33-6.57s-4.65,3.19-6.33,6.57c-1.73,3.5-3.52,7.12-7.22,7.12s-5.49-3.62-7.23-7.12c-1.67-3.38-3.25-6.57-6.32-6.57s-4.66,3.19-6.33,6.57c-1.74,3.5-3.53,7.12-7.23,7.12s-5.49-3.62-7.22-7.12c-1.67-3.38-3.25-6.57-6.33-6.57s-4.66,3.19-6.33,6.57c-1.73,3.5-3.53,7.12-7.22,7.12s-5.5-3.62-7.23-7.12c-1.67-3.38-3.25-6.57-6.33-6.57s-4.65,3.19-6.32,6.57c-1.74,3.5-3.53,7.12-7.23,7.12s-5.49-3.62-7.22-7.12c-1.68-3.38-3.25-6.57-6.33-6.57s-4.66,3.19-6.33,6.57c-1.74,3.5-3.53,7.12-7.23,7.12s-5.49-3.62-7.22-7.12c-1.67-3.38-3.25-6.57-6.33-6.57s-4.66,3.19-6.33,6.57c-1.73,3.5-3.52,7.12-7.22,7.12s-5.49-3.62-7.23-7.12c-1.67-3.38-3.25-6.57-6.32-6.57s-4.66,3.19-6.33,6.57c-1.74,3.5-3.53,7.12-7.23,7.12s-5.49-3.62-7.22-7.12c-1.67-3.38-3.25-6.57-6.33-6.57s-4.66,3.19-6.33,6.57c-1.73,3.5-3.53,7.12-7.22,7.12s-5.49-3.62-7.23-7.12c-1.67-3.38-3.25-6.57-6.33-6.57s-4.65,3.19-6.32,6.57c-1.74,3.5-3.53,7.12-7.23,7.12s-5.49-3.62-7.22-7.12c-1.67-3.38-3.25-6.57-6.33-6.57s-4.66,3.19-6.33,6.57c-1.73,3.5-3.52,7.12-7.22,7.12s-5.49-3.62-7.23-7.12c-1.67-3.38-3.25-6.57-6.33-6.57s-4.65,3.19-6.32,6.57c-1.74,3.5-3.53,7.12-7.23,7.12s-5.49-3.62-7.22-7.12c-1.67-3.38-3.25-6.57-6.33-6.57s-4.66,3.19-6.33,6.57c-1.73,3.5-3.52,7.12-7.22,7.12s-5.49-3.62-7.23-7.12c-1.67-3.38-3.25-6.57-6.32-6.57s-4.66,3.19-6.33,6.57c-1.73,3.5-3.53,7.12-7.23,7.12s-5.49-3.62-7.22-7.12c-1.67-3.38-3.25-6.57-6.33-6.57s-4.66,3.19-6.34,6.57c-1.73,3.5-3.53,7.12-7.23,7.12s-5.5-3.62-7.23-7.12c-1.67-3.38-3.25-6.57-6.34-6.57s-4.66,3.19-6.33,6.57c-1.73,3.5-3.53,7.12-7.23,7.12s-5.49-3.62-7.22-7.12c-1.68-3.38-3.26-6.57-6.34-6.57s-4.66,3.19-6.33,6.57c-1.73,3.5-3.53,7.12-7.23,7.12s-5.49-3.62-7.22-7.12c-1.67-3.38-3.25-6.57-6.33-6.57s-4.66,3.19-6.33,6.57c-1.74,3.5-3.53,7.12-7.23,7.12s-5.49-3.62-7.23-7.12c-1.67-3.38-3.25-6.57-6.33-6.57s-4.66,3.19-6.33,6.57c-1.74,3.5-3.53,7.12-7.23,7.12s-5.49-3.62-7.23-7.12c-1.67-3.38-3.25-6.57-6.33-6.57s-4.66,3.19-6.33,6.57c-1.73,3.5-3.53,7.12-7.23,7.12s-5.49-3.62-7.22-7.12c-1.67-3.38-3.25-6.57-6.33-6.57s-4.66,3.19-6.33,6.57c-1.74,3.5-3.53,7.12-7.23,7.12s-5.49-3.62-7.22-7.12c-1.68-3.38-3.26-6.57-6.34-6.57s-4.65,3.19-6.33,6.57c-1.73,3.5-3.52,7.12-7.22,7.12s-5.49-3.62-7.23-7.12c-1.67-3.38-3.25-6.57-6.32-6.57s-4.66,3.19-6.33,6.57c-1.74,3.5-3.53,7.12-7.23,7.12s-5.49-3.62-7.23-7.12c-1.67-3.38-3.25-6.57-6.33-6.57s-4.66,3.19-6.33,6.57c-1.73,3.5-3.53,7.12-7.23,7.12s-5.49-3.62-7.22-7.12c-1.67-3.38-3.25-6.57-6.33-6.57s-4.66,3.19-6.33,6.57c-1.74,3.5-3.53,7.12-7.23,7.12s-5.49-3.62-7.23-7.12c-1.67-3.38-3.25-6.57-6.33-6.57s-4.65,3.19-6.33,6.57c-1.73,3.5-3.52,7.12-7.22,7.12s-5.49-3.62-7.23-7.12c-1.67-3.38-3.25-6.57-6.33-6.57s-4.66,3.19-6.33,6.57c-1.73,3.5-3.53,7.12-7.23,7.12s-5.49-3.62-7.22-7.12c-1.67-3.38-3.25-6.57-6.33-6.57s-4.66,3.19-6.33,6.57c-1.73,3.5-3.53,7.12-7.23,7.12s-5.49-3.62-7.22-7.12c-1.67-3.38-3.25-6.57-6.33-6.57s-4.66,3.19-6.33,6.57c-1.74,3.5-3.53,7.12-7.23,7.12s-5.49-3.62-7.22-7.12c-1.68-3.38-3.26-6.57-6.34-6.57s-4.65,3.19-6.32,6.57c-1.74,3.5-3.53,7.12-7.23,7.12s-5.49-3.62-7.23-7.12c-1.67-3.38-3.25-6.57-6.33-6.57s-4.65,3.19-6.32,6.57c-1.74,3.5-3.53,7.12-7.23,7.12s-5.49-3.62-7.22-7.12c-1.68-3.38-3.26-6.57-6.33-6.57s-4.66,3.19-6.33,6.57c-1.74,3.5-3.53,7.12-7.23,7.12s-5.49-3.62-7.22-7.12c-1.67-3.38-3.25-6.57-6.33-6.57s-4.66,3.19-6.33,6.57c-1.73,3.5-3.53,7.12-7.23,7.12s-5.49-3.62-7.22-7.12c-1.67-3.38-3.25-6.57-6.33-6.57s-4.66,3.19-6.33,6.57c-1.73,3.5-3.52,7.12-7.22,7.12s-5.49-3.62-7.23-7.12c-1.67-3.38-3.25-6.57-6.33-6.57s-4.65,3.19-6.33,6.57c-1.73,3.5-3.52,7.12-7.22,7.12s-5.49-3.62-7.23-7.12c-1.67-3.38-3.25-6.57-6.32-6.57s-4.66,3.19-6.33,6.57c-1.73,3.5-3.53,7.12-7.23,7.12s-5.49-3.62-7.22-7.12c-1.67-3.38-3.25-6.57-6.33-6.57s-4.66,3.19-6.33,6.57c-1.73,3.5-3.53,7.12-7.22,7.12s-5.49-3.62-7.23-7.12c-1.67-3.38-3.25-6.57-6.32-6.57s-4.66,3.19-6.33,6.57c-1.74,3.5-3.53,7.12-7.23,7.12s-5.49-3.62-7.22-7.12c-1.67-3.38-3.25-6.57-6.33-6.57s-4.66,3.19-6.33,6.57c-1.73,3.5-3.52,7.12-7.22,7.12s-5.49-3.62-7.23-7.12c-1.67-3.38-3.25-6.57-6.32-6.57s-4.66,3.19-6.33,6.57c-1.73,3.5-3.53,7.12-7.22,7.12s-5.49-3.62-7.23-7.12c-1.67-3.38-3.25-6.57-6.33-6.57s-4.65,3.19-6.33,6.57c-1.73,3.5-3.52,7.12-7.22,7.12s-5.49-3.62-7.22-7.12c-1.67-3.38-3.25-6.57-6.33-6.57s-4.65,3.19-6.33,6.57c-1.73,3.5-3.52,7.12-7.22,7.12s-5.49-3.62-7.22-7.12c-1.67-3.38-3.25-6.57-6.33-6.57s-4.65,3.19-6.33,6.57c-1.73,3.5-3.52,7.12-7.22,7.12s-5.49-3.62-7.22-7.12c-1.68-3.38-3.26-6.57-6.33-6.57s-4.66,3.19-6.33,6.57c-1.74,3.5-3.53,7.12-7.23,7.12s-5.49-3.62-7.22-7.12c-1.68-3.38-3.25-6.57-6.33-6.57s-4.66,3.19-6.33,6.57c-1.73,3.5-3.53,7.12-7.23,7.12s-5.49-3.62-7.22-7.12c-1.67-3.38-3.25-6.57-6.33-6.57s-4.66,3.19-6.33,6.57c-1.73,3.5-3.52,7.12-7.22,7.12s-5.5-3.62-7.23-7.12c-1.67-3.38-3.25-6.57-6.33-6.57s-4.66,3.19-6.33,6.57c-1.73,3.5-3.52,7.12-7.22,7.12s-5.49-3.62-7.23-7.12c-1.67-3.38-3.25-6.57-6.32-6.57s-4.66,3.19-6.33,6.57c-1.74,3.5-3.53,7.12-7.23,7.12s-5.49-3.62-7.22-7.12c-1.68-3.38-3.26-6.57-6.33-6.57s-4.66,3.19-6.33,6.57c-1.73,3.5-3.53,7.12-7.23,7.12s-5.49-3.62-7.22-7.12c-1.67-3.38-3.25-6.57-6.33-6.57s-4.66,3.19-6.33,6.57c-1.73,3.5-3.53,7.12-7.22,7.12s-5.5-3.62-7.23-7.12c-1.67-3.38-3.25-6.57-6.33-6.57s-4.65,3.19-6.33,6.57c-1.73,3.5-3.52,7.12-7.22,7.12s-5.49-3.62-7.23-7.12c-1.67-3.38-3.25-6.57-6.32-6.57s-4.66,3.19-6.33,6.57c-1.74,3.5-3.53,7.12-7.23,7.12s-5.49-3.62-7.22-7.12c-1.67-3.38-3.25-6.57-6.33-6.57s-4.66,3.19-6.33,6.57c-1.73,3.5-3.52,7.12-7.22,7.12s-5.49-3.62-7.23-7.12c-1.67-3.38-3.25-6.57-6.33-6.57s-4.65,3.19-6.33,6.57c-1.73,3.5-3.52,7.12-7.22,7.12s-5.49-3.62-7.23-7.12c-1.67-3.38-3.25-6.57-6.32-6.57s-4.66,3.19-6.33,6.57c-1.74,3.5-3.53,7.12-7.23,7.12s-5.49-3.62-7.22-7.12c-1.67-3.38-3.25-6.57-6.33-6.57s-4.66,3.19-6.33,6.57c-1.73,3.5-3.52,7.12-7.22,7.12s-5.49-3.62-7.23-7.12c-1.67-3.38-3.25-6.57-6.33-6.57s-4.65,3.19-6.32,6.57c-1.74,3.5-3.53,7.12-7.23,7.12s-5.49-3.62-7.22-7.12c-1.68-3.38-3.25-6.57-6.33-6.57s-4.66,3.19-6.33,6.57c-1.73,3.5-3.52,7.12-7.22,7.12s-5.49-3.62-7.23-7.12c-1.67-3.38-3.25-6.57-6.33-6.57s-4.65,3.19-6.33,6.57c-1.73,3.5-3.52,7.12-7.22,7.12s-5.49-3.62-7.23-7.12c-1.67-3.38-3.25-6.57-6.32-6.57s-4.66,3.19-6.33,6.57c-1.73,3.5-3.53,7.12-7.23,7.12s-5.49-3.62-7.22-7.12c-1.67-3.38-3.25-6.57-6.33-6.57s-4.65,3.19-6.32,6.57c-1.74,3.5-3.53,7.12-7.23,7.12s-5.49-3.62-7.22-7.12c-1.68-3.38-3.25-6.57-6.33-6.57s-4.66,3.19-6.33,6.57c-1.73,3.5-3.53,7.12-7.23,7.12s-5.49-3.62-7.22-7.12c-1.67-3.38-3.25-6.57-6.33-6.57s-4.66,3.19-6.33,6.57c-1.73,3.5-3.52,7.12-7.22,7.12s-5.49-3.62-7.22-7.12c-1.68-3.38-3.25-6.57-6.33-6.57s-4.66,3.19-6.33,6.57c-1.73,3.5-3.52,7.12-7.22,7.12s-5.49-3.62-7.23-7.12c-1.67-3.38-3.25-6.57-6.33-6.57s-4.65,3.19-6.32,6.57c-1.74,3.5-3.53,7.12-7.23,7.12s-5.5-3.62-7.23-7.12c-1.68-3.38-3.26-6.57-6.34-6.57s-4.66,3.19-6.33,6.57c-1.74,3.5-3.53,7.12-7.24,7.12s-5.49-3.62-7.22-7.12c-1.68-3.38-3.26-6.57-6.34-6.57s-4.66,3.19-6.33,6.57c-1.73,3.5-3.53,7.12-7.23,7.12s-5.49-3.62-7.23-7.12c-1.67-3.38-3.25-6.57-6.33-6.57s-4.65,3.19-6.33,6.57c-1.73,3.5-3.52,7.12-7.22,7.12s-5.5-3.62-7.23-7.12c-1.67-3.38-3.25-6.57-6.33-6.57s-4.66,3.19-6.33,6.57c-1.74,3.5-3.53,7.12-7.23,7.12s-5.49-3.62-7.23-7.12c-1.67-3.38-3.25-6.57-6.33-6.57s-4.66,3.19-6.33,6.57c-1.73,3.5-3.53,7.12-7.23,7.12s-5.49-3.62-7.22-7.12c-1.68-3.38-3.26-6.57-6.34-6.57s-4.65,3.19-6.33,6.57c-1.73,3.5-3.52,7.12-7.22,7.12s-5.49-3.62-7.23-7.12c-1.67-3.38-3.25-6.57-6.33-6.57s-4.66,3.19-6.33,6.57c-1.73,3.5-3.53,7.12-7.23,7.12s-5.49-3.62-7.22-7.12c-1.67-3.38-3.25-6.57-6.33-6.57s-4.66,3.19-6.33,6.57c-1.73,3.5-3.53,7.12-7.22,7.12s-5.5-3.62-7.23-7.12c-1.67-3.38-3.25-6.57-6.33-6.57s-4.66,3.19-6.33,6.57c-1.74,3.5-3.53,7.12-7.23,7.12s-5.49-3.62-7.23-7.12c-1.67-3.38-3.25-6.57-6.33-6.57s-4.65,3.19-6.33,6.57c-1.73,3.5-3.52,7.12-7.22,7.12s-5.49-3.62-7.23-7.12c-1.67-3.38-3.25-6.57-6.33-6.57s-4.66,3.19-6.33,6.57c-1.73,3.5-3.53,7.12-7.23,7.12s-5.49-3.62-7.22-7.12c-1.67-3.38-3.25-6.57-6.33-6.57s-4.66,3.19-6.33,6.57c-1.74,3.5-3.53,7.12-7.23,7.12s-5.49-3.62-7.22-7.12c-1.68-3.38-3.26-6.57-6.34-6.57s-4.65,3.19-6.33,6.57c-1.73,3.5-3.52,7.12-7.22,7.12s-5.49-3.62-7.23-7.12c-1.67-3.38-3.25-6.57-6.33-6.57s-4.65,3.19-6.33,6.57c-1.73,3.5-3.52,7.12-7.22,7.12s-5.5-3.62-7.23-7.12c-1.67-3.38-3.25-6.57-6.33-6.57s-4.66,3.19-6.33,6.57c-1.73,3.5-3.53,7.12-7.23,7.12s-5.49-3.62-7.22-7.12c-1.67-3.38-3.25-6.57-6.33-6.57s-4.66,3.19-6.33,6.57c-1.73,3.5-3.53,7.12-7.23,7.12s-5.49-3.62-7.22-7.12c-1.67-3.38-3.25-6.57-6.33-6.57s-4.66,3.19-6.33,6.57c-1.73,3.5-3.52,7.12-7.22,7.12s-5.5-3.62-7.23-7.12c-1.67-3.38-3.25-6.57-6.33-6.57s-4.66,3.19-6.33,6.57c-1.73,3.5-3.52,7.12-7.22,7.12s-5.49-3.62-7.23-7.12c-1.67-3.38-3.25-6.57-6.33-6.57s-4.65,3.19-6.33,6.57c-1.73,3.5-3.52,7.12-7.22,7.12s-5.49-3.62-7.23-7.12c-1.67-3.38-3.25-6.57-6.32-6.57s-4.66,3.19-6.33,6.57c-1.74,3.5-3.53,7.12-7.23,7.12s-5.49-3.62-7.22-7.12c-1.67-3.38-3.25-6.57-6.33-6.57s-4.66,3.19-6.33,6.57c-1.73,3.5-3.52,7.12-7.22,7.12s-5.49-3.62-7.23-7.12c-1.67-3.38-3.25-6.57-6.33-6.57s-4.65,3.19-6.33,6.57c-1.73,3.5-3.52,7.12-7.22,7.12s-5.49-3.62-7.23-7.12c-1.67-3.38-3.25-6.57-6.32-6.57s-4.66,3.19-6.33,6.57c-1.73,3.5-3.53,7.12-7.22,7.12s-5.49-3.62-7.23-7.12c-1.67-3.38-3.25-6.57-6.33-6.57s-4.65,3.19-6.33,6.57c-1.73,3.5-3.52,7.12-7.22,7.12s-5.49-3.62-7.23-7.12c-1.67-3.38-3.25-6.57-6.32-6.57s-4.66,3.19-6.33,6.57c-1.73,3.5-3.52,7.12-7.22,7.12s-5.49-3.62-7.23-7.12c-1.67-3.38-3.25-6.57-6.32-6.57s-4.66,3.19-6.33,6.57c-1.74,3.5-3.53,7.12-7.23,7.12s-5.49-3.62-7.22-7.12c-1.67-3.38-3.25-6.57-6.33-6.57s-4.66,3.19-6.33,6.57c-1.73,3.5-3.52,7.12-7.22,7.12s-5.49-3.62-7.22-7.12c-1.67-3.38-3.25-6.57-6.33-6.57s-4.65,3.19-6.32,6.57c-1.74,3.5-3.53,7.12-7.23,7.12s-5.49-3.62-7.22-7.12c-1.67-3.38-3.25-6.57-6.33-6.57s-4.66,3.19-6.33,6.57c-1.73,3.5-3.53,7.12-7.22,7.12s-5.5-3.62-7.23-7.12c-1.67-3.38-3.25-6.57-6.33-6.57s-4.65,3.19-6.33,6.57c-1.73,3.5-3.52,7.12-7.22,7.12s-5.49-3.62-7.23-7.12c-1.67-3.38-3.25-6.57-6.33-6.57s-4.65,3.19-6.33,6.57c-1.73,3.5-3.52,7.12-7.22,7.12s-5.49-3.62-7.22-7.12c-1.68-3.38-3.26-6.57-6.33-6.57s-4.66,3.19-6.33,6.57c-1.74,3.5-3.53,7.12-7.23,7.12s-5.49-3.62-7.22-7.12c-1.67-3.38-3.25-6.57-6.33-6.57s-4.66,3.19-6.33,6.57c-1.73,3.5-3.53,7.12-7.22,7.12s-5.5-3.62-7.23-7.12c-1.67-3.38-3.25-6.57-6.33-6.57s-4.66,3.19-6.33,6.57c-1.73,3.5-3.52,7.12-7.22,7.12s-5.49-3.62-7.23-7.12c-1.67-3.38-3.25-6.57-6.33-6.57s-4.65,3.19-6.32,6.57c-1.74,3.5-3.53,7.12-7.23,7.12s-5.49-3.62-7.23-7.12c-1.67-3.38-3.25-6.57-6.32-6.57s-4.66,3.19-6.33,6.57c-1.74,3.5-3.53,7.12-7.23,7.12s-5.49-3.62-7.22-7.12c-1.67-3.38-3.25-6.57-6.33-6.57s-4.66,3.19-6.33,6.57c-1.73,3.5-3.53,7.12-7.22,7.12s-5.5-3.62-7.23-7.12c-1.67-3.38-3.25-6.57-6.33-6.57s-4.65,3.19-6.33,6.57c-1.73,3.5-3.52,7.12-7.22,7.12s-5.49-3.62-7.23-7.12c-1.67-3.38-3.25-6.57-6.32-6.57s-4.66,3.19-6.33,6.57c-1.74,3.5-3.53,7.12-7.23,7.12s-5.49-3.62-7.22-7.12c-1.67-3.38-3.25-6.57-6.33-6.57s-4.66,3.19-6.33,6.57c-1.73,3.5-3.53,7.12-7.22,7.12s-5.5-3.62-7.23-7.12c-1.67-3.38-3.25-6.57-6.33-6.57s-4.65,3.19-6.32,6.57c-1.74,3.5-3.53,7.12-7.23,7.12s-5.49-3.62-7.22-7.12c-1.68-3.38-3.25-6.57-6.33-6.57s-4.66,3.19-6.33,6.57c-1.74,3.5-3.53,7.12-7.23,7.12s-5.49-3.62-7.22-7.12c-1.67-3.38-3.25-6.57-6.33-6.57s-4.66,3.19-6.33,6.57c-1.73,3.5-3.52,7.12-7.22,7.12s-5.49-3.62-7.23-7.12c-1.67-3.38-3.25-6.57-6.32-6.57s-4.66,3.19-6.33,6.57c-1.74,3.5-3.53,7.12-7.23,7.12s-5.49-3.62-7.22-7.12c-1.67-3.38-3.25-6.57-6.33-6.57s-4.66,3.19-6.33,6.57c-1.73,3.5-3.53,7.12-7.22,7.12s-5.49-3.62-7.23-7.12c-1.67-3.38-3.25-6.57-6.33-6.57s-4.65,3.19-6.32,6.57c-1.74,3.5-3.53,7.12-7.23,7.12s-5.49-3.62-7.22-7.12c-1.67-3.38-3.25-6.57-6.33-6.57s-4.66,3.19-6.33,6.57c-1.73,3.5-3.52,7.12-7.22,7.12s-5.49-3.62-7.23-7.12c-1.67-3.38-3.25-6.57-6.33-6.57s-4.65,3.19-6.32,6.57c-1.74,3.5-3.53,7.12-7.23,7.12s-5.49-3.62-7.22-7.12c-1.67-3.38-3.25-6.57-6.33-6.57s-4.66,3.19-6.33,6.57c-1.73,3.5-3.52,7.12-7.22,7.12s-5.49-3.62-7.23-7.12c-1.67-3.38-3.25-6.57-6.32-6.57s-4.66,3.19-6.33,6.57c-1.73,3.5-3.53,7.12-7.23,7.12s-5.49-3.62-7.22-7.12C4.66,4.19,3.08,1,0,1V0c3.7,0,5.49,3.62,7.23,7.12,1.67,3.38,3.25,6.57,6.32,6.57s4.66-3.19,6.33-6.57c1.74-3.5,3.53-7.12,7.23-7.12s5.49,3.62,7.22,7.12c1.67,3.38,3.25,6.57,6.33,6.57s4.65-3.19,6.33-6.57c1.73-3.5,3.52-7.12,7.22-7.12s5.49,3.62,7.22,7.12c1.67,3.38,3.25,6.57,6.33,6.57s4.66-3.19,6.33-6.57c1.73-3.5,3.53-7.12,7.22-7.12s5.5,3.62,7.23,7.12c1.67,3.38,3.25,6.57,6.33,6.57s4.65-3.19,6.33-6.57c1.73-3.5,3.52-7.12,7.22-7.12s5.49,3.62,7.23,7.12c1.67,3.38,3.25,6.57,6.32,6.57s4.66-3.19,6.33-6.57c1.73-3.5,3.53-7.12,7.22-7.12s5.5,3.62,7.23,7.12c1.67,3.38,3.25,6.57,6.33,6.57s4.65-3.19,6.32-6.57c1.74-3.5,3.53-7.12,7.23-7.12s5.49,3.62,7.22,7.12c1.68,3.38,3.26,6.57,6.33,6.57s4.66-3.19,6.33-6.57c1.74-3.5,3.53-7.12,7.23-7.12s5.49,3.62,7.22,7.12c1.67,3.38,3.25,6.57,6.33,6.57s4.65-3.19,6.33-6.57c1.73-3.5,3.52-7.12,7.22-7.12s5.49,3.62,7.23,7.12c1.67,3.38,3.25,6.57,6.32,6.57s4.66-3.19,6.33-6.57c1.74-3.5,3.53-7.12,7.23-7.12s5.49,3.62,7.22,7.12c1.67,3.38,3.25,6.57,6.33,6.57s4.66-3.19,6.33-6.57c1.73-3.5,3.52-7.12,7.22-7.12s5.49,3.62,7.23,7.12c1.67,3.38,3.25,6.57,6.33,6.57s4.65-3.19,6.32-6.57c1.74-3.5,3.53-7.12,7.23-7.12s5.49,3.62,7.22,7.12c1.68,3.38,3.26,6.57,6.33,6.57s4.66-3.19,6.33-6.57c1.74-3.5,3.53-7.12,7.23-7.12s5.49,3.62,7.22,7.12c1.67,3.38,3.25,6.57,6.33,6.57s4.66-3.19,6.33-6.57c1.73-3.5,3.52-7.12,7.22-7.12s5.49,3.62,7.23,7.12c1.67,3.38,3.25,6.57,6.33,6.57s4.65-3.19,6.32-6.57c1.74-3.5,3.53-7.12,7.23-7.12s5.49,3.62,7.22,7.12c1.68,3.38,3.26,6.57,6.33,6.57s4.66-3.19,6.33-6.57c1.73-3.5,3.53-7.12,7.23-7.12s5.49,3.62,7.22,7.12c1.67,3.38,3.25,6.57,6.33,6.57s4.66-3.19,6.33-6.57c1.73-3.5,3.53-7.12,7.22-7.12s5.5,3.62,7.23,7.12c1.67,3.38,3.25,6.57,6.33,6.57s4.65-3.19,6.33-6.57c1.73-3.5,3.52-7.12,7.22-7.12s5.49,3.62,7.23,7.12c1.67,3.38,3.25,6.57,6.33,6.57s4.65-3.19,6.32-6.57c1.74-3.5,3.53-7.12,7.23-7.12s5.49,3.62,7.22,7.12c1.67,3.38,3.25,6.57,6.33,6.57s4.66-3.19,6.33-6.57c1.73-3.5,3.53-7.12,7.23-7.12s5.49,3.62,7.22,7.12c1.67,3.38,3.25,6.57,6.33,6.57s4.66-3.19,6.33-6.57c1.73-3.5,3.52-7.12,7.22-7.12s5.5,3.62,7.23,7.12c1.67,3.38,3.25,6.57,6.33,6.57s4.65-3.19,6.33-6.57c1.73-3.5,3.52-7.12,7.22-7.12s5.49,3.62,7.23,7.12c1.67,3.38,3.25,6.57,6.33,6.57s4.65-3.19,6.33-6.57c1.73-3.5,3.52-7.12,7.22-7.12s5.49,3.62,7.22,7.12c1.68,3.38,3.25,6.57,6.33,6.57s4.66-3.19,6.33-6.57c1.73-3.5,3.52-7.12,7.22-7.12s5.49,3.62,7.22,7.12c1.68,3.38,3.25,6.57,6.33,6.57s4.66-3.19,6.33-6.57c1.73-3.5,3.52-7.12,7.22-7.12s5.49,3.62,7.22,7.12c1.68,3.38,3.26,6.57,6.33,6.57s4.66-3.19,6.33-6.57c1.74-3.5,3.53-7.12,7.23-7.12s5.49,3.62,7.22,7.12c1.67,3.38,3.25,6.57,6.33,6.57s4.65-3.19,6.32-6.57c1.74-3.5,3.53-7.12,7.23-7.12s5.49,3.62,7.22,7.12c1.67,3.38,3.25,6.57,6.33,6.57s4.66-3.19,6.33-6.57c1.73-3.5,3.52-7.12,7.22-7.12s5.49,3.62,7.23,7.12c1.67,3.38,3.25,6.57,6.33,6.57s4.65-3.19,6.32-6.57c1.74-3.5,3.53-7.12,7.23-7.12s5.49,3.62,7.22,7.12c1.67,3.38,3.25,6.57,6.33,6.57s4.66-3.19,6.33-6.57c1.73-3.5,3.53-7.12,7.22-7.12s5.5,3.62,7.23,7.12c1.67,3.38,3.25,6.57,6.33,6.57s4.65-3.19,6.32-6.57c1.74-3.5,3.53-7.12,7.23-7.12s5.49,3.62,7.22,7.12c1.68,3.38,3.25,6.57,6.33,6.57s4.66-3.19,6.33-6.57c1.74-3.5,3.53-7.12,7.23-7.12s5.49,3.62,7.22,7.12c1.67,3.38,3.25,6.57,6.33,6.57s4.66-3.19,6.33-6.57c1.73-3.5,3.52-7.12,7.22-7.12s5.5,3.62,7.23,7.12c1.67,3.38,3.25,6.57,6.33,6.57s4.66-3.19,6.33-6.57c1.73-3.5,3.52-7.12,7.22-7.12s5.49,3.62,7.23,7.12c1.67,3.38,3.25,6.57,6.33,6.57s4.65-3.19,6.33-6.57c1.73-3.5,3.52-7.12,7.22-7.12s5.49,3.62,7.23,7.12c1.67,3.38,3.25,6.57,6.32,6.57s4.66-3.19,6.33-6.57c1.74-3.5,3.53-7.12,7.23-7.12s5.49,3.62,7.23,7.12c1.67,3.38,3.25,6.57,6.32,6.57s4.66-3.19,6.34-6.57c1.73-3.5,3.52-7.12,7.22-7.12s5.49,3.62,7.23,7.12c1.67,3.38,3.25,6.57,6.33,6.57s4.66-3.19,6.33-6.57c1.73-3.5,3.52-7.12,7.22-7.12s5.5,3.62,7.23,7.12c1.67,3.38,3.25,6.57,6.33,6.57s4.66-3.19,6.33-6.57c1.73-3.5,3.53-7.12,7.22-7.12s5.5,3.62,7.23,7.12c1.67,3.38,3.25,6.57,6.33,6.57s4.66-3.19,6.33-6.57c1.74-3.5,3.53-7.12,7.23-7.12s5.49,3.62,7.22,7.12c1.68,3.38,3.25,6.57,6.33,6.57s4.66-3.19,6.33-6.57c1.74-3.5,3.53-7.12,7.23-7.12s5.49,3.62,7.23,7.12c1.67,3.38,3.25,6.57,6.33,6.57s4.66-3.19,6.33-6.57c1.73-3.5,3.53-7.12,7.22-7.12s5.5,3.62,7.23,7.12c1.67,3.38,3.25,6.57,6.33,6.57s4.66-3.19,6.33-6.57c1.74-3.5,3.53-7.12,7.23-7.12s5.49,3.62,7.23,7.12c1.67,3.38,3.25,6.57,6.33,6.57s4.65-3.19,6.32-6.57c1.74-3.5,3.53-7.12,7.23-7.12s5.49,3.62,7.22,7.12c1.68,3.38,3.25,6.57,6.33,6.57s4.66-3.19,6.34-6.57c1.73-3.5,3.52-7.12,7.22-7.12s5.49,3.62,7.23,7.12c1.67,3.38,3.25,6.57,6.33,6.57s4.66-3.19,6.33-6.57c1.73-3.5,3.52-7.12,7.22-7.12s5.5,3.62,7.23,7.12c1.67,3.38,3.25,6.57,6.33,6.57s4.66-3.19,6.33-6.57c1.74-3.5,3.53-7.12,7.23-7.12s5.49,3.62,7.23,7.12c1.67,3.38,3.25,6.57,6.33,6.57s4.66-3.19,6.33-6.57c1.74-3.5,3.53-7.12,7.23-7.12s5.49,3.62,7.23,7.12c1.67,3.38,3.25,6.57,6.33,6.57s4.66-3.19,6.33-6.57c1.73-3.5,3.52-7.12,7.22-7.12s5.5,3.62,7.23,7.12c1.67,3.38,3.25,6.57,6.33,6.57s4.66-3.19,6.34-6.57c1.73-3.5,3.52-7.12,7.22-7.12s5.5,3.62,7.23,7.12c1.67,3.38,3.25,6.57,6.33,6.57s4.67-3.19,6.34-6.57c1.73-3.5,3.53-7.12,7.23-7.12s5.5,3.62,7.23,7.12c1.68,3.38,3.26,6.57,6.34,6.57s4.66-3.19,6.33-6.57c1.73-3.5,3.53-7.12,7.22-7.12s5.5,3.62,7.23,7.12c1.67,3.38,3.25,6.57,6.33,6.57s4.65-3.19,6.32-6.57c1.74-3.5,3.53-7.12,7.23-7.12s5.49,3.62,7.22,7.12c1.67,3.38,3.25,6.57,6.33,6.57s4.66-3.19,6.33-6.57c1.73-3.5,3.52-7.12,7.22-7.12s5.49,3.62,7.23,7.12c1.67,3.38,3.25,6.57,6.32,6.57s4.66-3.19,6.33-6.57c1.74-3.5,3.53-7.12,7.23-7.12s5.49,3.62,7.22,7.12c1.67,3.38,3.25,6.57,6.33,6.57s4.66-3.19,6.33-6.57c1.73-3.5,3.52-7.12,7.22-7.12s5.49,3.62,7.23,7.12c1.67,3.38,3.25,6.57,6.32,6.57s4.66-3.19,6.33-6.57c1.74-3.5,3.53-7.12,7.23-7.12s5.49,3.62,7.22,7.12c1.67,3.38,3.25,6.57,6.33,6.57s4.66-3.19,6.33-6.57c1.73-3.5,3.52-7.12,7.22-7.12s5.49,3.62,7.23,7.12c1.67,3.38,3.25,6.57,6.33,6.57s4.65-3.19,6.32-6.57c1.74-3.5,3.53-7.12,7.23-7.12s5.49,3.62,7.22,7.12c1.67,3.38,3.25,6.57,6.33,6.57s4.66-3.19,6.33-6.57c1.73-3.5,3.52-7.12,7.22-7.12s5.49,3.62,7.23,7.12c1.67,3.38,3.25,6.57,6.33,6.57s4.65-3.19,6.33-6.57c1.73-3.5,3.52-7.12,7.22-7.12s5.49,3.62,7.23,7.12c1.67,3.38,3.25,6.57,6.32,6.57s4.66-3.19,6.33-6.57c1.73-3.5,3.53-7.12,7.23-7.12s5.49,3.62,7.22,7.12c1.67,3.38,3.25,6.57,6.33,6.57s4.66-3.19,6.33-6.57c1.73-3.5,3.52-7.12,7.22-7.12s5.49,3.62,7.23,7.12c1.67,3.38,3.25,6.57,6.33,6.57s4.65-3.19,6.32-6.57c1.74-3.5,3.53-7.12,7.23-7.12s5.49,3.62,7.22,7.12c1.68,3.38,3.25,6.57,6.33,6.57s4.66-3.19,6.33-6.57c1.73-3.5,3.53-7.12,7.23-7.12s5.49,3.62,7.22,7.12c1.67,3.38,3.25,6.57,6.33,6.57s4.66-3.19,6.33-6.57c1.73-3.5,3.52-7.12,7.22-7.12s5.49,3.62,7.23,7.12c1.67,3.38,3.25,6.57,6.33,6.57s4.65-3.19,6.32-6.57c1.74-3.5,3.53-7.12,7.23-7.12s5.49,3.62,7.23,7.12c1.67,3.38,3.25,6.57,6.32,6.57s4.66-3.19,6.33-6.57c1.74-3.5,3.53-7.12,7.23-7.12s5.49,3.62,7.22,7.12c1.67,3.38,3.25,6.57,6.33,6.57s4.66-3.19,6.33-6.57c1.73-3.5,3.53-7.12,7.23-7.12s5.49,3.62,7.22,7.12c1.67,3.38,3.25,6.57,6.33,6.57s4.66-3.19,6.33-6.57c1.73-3.5,3.52-7.12,7.22-7.12s5.49,3.62,7.23,7.12c1.67,3.38,3.25,6.57,6.33,6.57s4.65-3.19,6.33-6.57c1.73-3.5,3.52-7.12,7.22-7.12s5.49,3.62,7.22,7.12c1.68,3.38,3.26,6.57,6.33,6.57s4.66-3.19,6.33-6.57c1.74-3.5,3.53-7.12,7.23-7.12s5.49,3.62,7.22,7.12c1.68,3.38,3.25,6.57,6.33,6.57s4.66-3.19,6.33-6.57c1.73-3.5,3.53-7.12,7.23-7.12s5.49,3.62,7.22,7.12c1.67,3.38,3.25,6.57,6.33,6.57s4.66-3.19,6.33-6.57c1.73-3.5,3.52-7.12,7.22-7.12s5.49,3.62,7.23,7.12c1.67,3.38,3.25,6.57,6.32,6.57s4.66-3.19,6.33-6.57c1.73-3.5,3.52-7.12,7.22-7.12s5.49,3.62,7.22,7.12c1.67,3.38,3.25,6.57,6.33,6.57s4.66-3.19,6.33-6.57c1.73-3.5,3.52-7.12,7.22-7.12s5.49,3.62,7.23,7.12c1.67,3.38,3.25,6.57,6.33,6.57s4.65-3.19,6.32-6.57c1.74-3.5,3.53-7.12,7.23-7.12s5.49,3.62,7.22,7.12c1.67,3.38,3.25,6.57,6.33,6.57s4.65-3.19,6.32-6.57c1.74-3.5,3.53-7.12,7.23-7.12s5.49,3.62,7.22,7.12c1.68,3.38,3.26,6.57,6.33,6.57s4.66-3.19,6.33-6.57c1.74-3.5,3.53-7.12,7.23-7.12s5.49,3.62,7.22,7.12c1.67,3.38,3.25,6.57,6.33,6.57s4.65-3.19,6.32-6.57c1.74-3.5,3.53-7.12,7.23-7.12s5.49,3.62,7.22,7.12c1.68,3.38,3.26,6.57,6.33,6.57s4.66-3.19,6.33-6.57c1.74-3.5,3.53-7.12,7.23-7.12s5.49,3.62,7.22,7.12c1.67,3.38,3.25,6.57,6.33,6.57s4.66-3.19,6.33-6.57c1.73-3.5,3.52-7.12,7.22-7.12s5.49,3.62,7.23,7.12c1.67,3.38,3.25,6.57,6.33,6.57s4.65-3.19,6.32-6.57c1.74-3.5,3.53-7.12,7.23-7.12s5.49,3.62,7.22,7.12c1.68,3.38,3.26,6.57,6.33,6.57s4.66-3.19,6.33-6.57c1.74-3.5,3.53-7.12,7.23-7.12s5.49,3.62,7.22,7.12c1.67,3.38,3.25,6.57,6.33,6.57s4.66-3.19,6.33-6.57c1.73-3.5,3.53-7.12,7.23-7.12s5.49,3.62,7.22,7.12c1.67,3.38,3.25,6.57,6.33,6.57s4.66-3.19,6.33-6.57c1.73-3.5,3.53-7.12,7.22-7.12s5.5,3.62,7.23,7.12c1.67,3.38,3.25,6.57,6.33,6.57s4.66-3.19,6.33-6.57c1.73-3.5,3.53-7.12,7.22-7.12s5.5,3.62,7.23,7.12c1.67,3.38,3.25,6.57,6.33,6.57s4.66-3.19,6.33-6.57c1.73-3.5,3.53-7.12,7.23-7.12s5.49,3.62,7.22,7.12c1.68,3.38,3.25,6.57,6.33,6.57s4.66-3.19,6.33-6.57c1.74-3.5,3.53-7.12,7.23-7.12s5.49,3.62,7.22,7.12c1.68,3.38,3.26,6.57,6.33,6.57s4.66-3.19,6.34-6.57c1.73-3.5,3.52-7.12,7.22-7.12s5.49,3.62,7.23,7.12c1.67,3.38,3.25,6.57,6.33,6.57s4.66-3.19,6.33-6.57c1.73-3.5,3.52-7.12,7.22-7.12s5.5,3.62,7.23,7.12c1.67,3.38,3.25,6.57,6.33,6.57s4.66-3.19,6.33-6.57c1.74-3.5,3.53-7.12,7.23-7.12s5.49,3.62,7.22,7.12c1.68,3.38,3.26,6.57,6.33,6.57s4.66-3.19,6.33-6.57c1.74-3.5,3.53-7.12,7.23-7.12s5.49,3.62,7.23,7.12c1.67,3.38,3.25,6.57,6.33,6.57s4.66-3.19,6.33-6.57c1.73-3.5,3.53-7.12,7.23-7.12s5.49,3.62,7.22,7.12c1.67,3.38,3.25,6.57,6.33,6.57s4.66-3.19,6.33-6.57c1.73-3.5,3.52-7.12,7.22-7.12s5.5,3.62,7.23,7.12c1.67,3.38,3.25,6.57,6.33,6.57s4.66-3.19,6.33-6.57c1.74-3.5,3.53-7.12,7.23-7.12s5.49,3.62,7.22,7.12c1.68,3.38,3.26,6.57,6.33,6.57s4.66-3.19,6.34-6.57c1.73-3.5,3.52-7.12,7.22-7.12s5.5,3.62,7.23,7.12c1.67,3.38,3.25,6.57,6.33,6.57s4.66-3.19,6.33-6.57c1.74-3.5,3.53-7.12,7.23-7.12s5.49,3.62,7.23,7.12c1.67,3.38,3.25,6.57,6.33,6.57s4.66-3.19,6.33-6.57c1.73-3.5,3.53-7.12,7.23-7.12s5.49,3.62,7.22,7.12c1.68,3.38,3.25,6.57,6.33,6.57s4.66-3.19,6.33-6.57c1.74-3.5,3.53-7.12,7.23-7.12s5.5,3.62,7.23,7.12c1.67,3.38,3.25,6.57,6.33,6.57s4.66-3.19,6.34-6.57c1.73-3.5,3.52-7.12,7.22-7.12s5.5,3.62,7.24,7.12c1.67,3.38,3.25,6.57,6.33,6.57s4.66-3.19,6.34-6.57c1.73-3.5,3.53-7.12,7.23-7.12s5.49,3.62,7.23,7.12c1.67,3.38,3.25,6.57,6.32,6.57s4.66-3.19,6.33-6.57c1.74-3.5,3.53-7.12,7.23-7.12s5.49,3.62,7.22,7.12c1.67,3.38,3.25,6.57,6.33,6.57s4.65-3.19,6.33-6.57c1.73-3.5,3.52-7.12,7.22-7.12s5.49,3.62,7.22,7.12c1.67,3.38,3.25,6.57,6.33,6.57s4.66-3.19,6.33-6.57c1.73-3.5,3.53-7.12,7.22-7.12s5.5,3.62,7.23,7.12c1.67,3.38,3.25,6.57,6.33,6.57s4.65-3.19,6.33-6.57c1.73-3.5,3.52-7.12,7.22-7.12s5.49,3.62,7.23,7.12c1.67,3.38,3.25,6.57,6.32,6.57s4.66-3.19,6.33-6.57c1.73-3.5,3.53-7.12,7.22-7.12s5.5,3.62,7.23,7.12c1.67,3.38,3.25,6.57,6.33,6.57s4.65-3.19,6.32-6.57c1.74-3.5,3.53-7.12,7.23-7.12s5.49,3.62,7.22,7.12c1.68,3.38,3.26,6.57,6.33,6.57s4.66-3.19,6.33-6.57c1.74-3.5,3.53-7.12,7.23-7.12s5.49,3.62,7.22,7.12c1.67,3.38,3.25,6.57,6.33,6.57s4.65-3.19,6.33-6.57c1.73-3.5,3.52-7.12,7.22-7.12s5.49,3.62,7.23,7.12c1.67,3.38,3.25,6.57,6.32,6.57s4.66-3.19,6.33-6.57c1.74-3.5,3.53-7.12,7.23-7.12s5.49,3.62,7.22,7.12c1.67,3.38,3.25,6.57,6.33,6.57s4.66-3.19,6.33-6.57c1.73-3.5,3.52-7.12,7.22-7.12s5.49,3.62,7.23,7.12c1.67,3.38,3.25,6.57,6.33,6.57s4.65-3.19,6.32-6.57c1.74-3.5,3.53-7.12,7.23-7.12s5.49,3.62,7.22,7.12c1.68,3.38,3.26,6.57,6.33,6.57s4.66-3.19,6.33-6.57c1.74-3.5,3.53-7.12,7.23-7.12s5.49,3.62,7.22,7.12c1.67,3.38,3.25,6.57,6.33,6.57s4.66-3.19,6.33-6.57c1.73-3.5,3.52-7.12,7.22-7.12s5.49,3.62,7.23,7.12c1.67,3.38,3.25,6.57,6.33,6.57s4.65-3.19,6.32-6.57c1.74-3.5,3.53-7.12,7.23-7.12s5.49,3.62,7.22,7.12c1.68,3.38,3.26,6.57,6.33,6.57s4.66-3.19,6.33-6.57c1.73-3.5,3.53-7.12,7.23-7.12s5.49,3.62,7.22,7.12c1.67,3.38,3.25,6.57,6.33,6.57s4.66-3.19,6.33-6.57c1.73-3.5,3.53-7.12,7.22-7.12s5.5,3.62,7.23,7.12c1.67,3.38,3.25,6.57,6.33,6.57s4.65-3.19,6.33-6.57c1.73-3.5,3.52-7.12,7.22-7.12s5.49,3.62,7.23,7.12c1.67,3.38,3.25,6.57,6.33,6.57s4.65-3.19,6.32-6.57c1.74-3.5,3.53-7.12,7.23-7.12s5.49,3.62,7.22,7.12c1.67,3.38,3.25,6.57,6.33,6.57s4.66-3.19,6.33-6.57c1.73-3.5,3.53-7.12,7.23-7.12s5.49,3.62,7.22,7.12c1.67,3.38,3.25,6.57,6.33,6.57s4.66-3.19,6.33-6.57c1.73-3.5,3.52-7.12,7.22-7.12s5.5,3.62,7.23,7.12c1.67,3.38,3.25,6.57,6.33,6.57s4.65-3.19,6.33-6.57c1.73-3.5,3.52-7.12,7.22-7.12s5.49,3.62,7.23,7.12c1.67,3.38,3.25,6.57,6.33,6.57s4.65-3.19,6.33-6.57c1.73-3.5,3.52-7.12,7.22-7.12s5.49,3.62,7.22,7.12c1.68,3.38,3.25,6.57,6.33,6.57s4.66-3.19,6.33-6.57c1.73-3.5,3.52-7.12,7.22-7.12s5.49,3.62,7.22,7.12c1.68,3.38,3.25,6.57,6.33,6.57s4.66-3.19,6.33-6.57c1.73-3.5,3.52-7.12,7.22-7.12s5.49,3.62,7.22,7.12c1.68,3.38,3.26,6.57,6.33,6.57s4.66-3.19,6.33-6.57c1.74-3.5,3.53-7.12,7.23-7.12s5.49,3.62,7.22,7.12c1.67,3.38,3.25,6.57,6.33,6.57s4.65-3.19,6.32-6.57c1.74-3.5,3.53-7.12,7.23-7.12s5.49,3.62,7.22,7.12c1.67,3.38,3.25,6.57,6.33,6.57s4.66-3.19,6.33-6.57c1.73-3.5,3.52-7.12,7.22-7.12s5.49,3.62,7.23,7.12c1.67,3.38,3.25,6.57,6.33,6.57s4.65-3.19,6.32-6.57c1.74-3.5,3.53-7.12,7.23-7.12s5.49,3.62,7.22,7.12c1.67,3.38,3.25,6.57,6.33,6.57s4.66-3.19,6.33-6.57c1.73-3.5,3.53-7.12,7.22-7.12s5.5,3.62,7.23,7.12c1.67,3.38,3.25,6.57,6.33,6.57s4.65-3.19,6.32-6.57c1.74-3.5,3.53-7.12,7.23-7.12s5.49,3.62,7.22,7.12c1.68,3.38,3.25,6.57,6.33,6.57s4.66-3.19,6.33-6.57c1.74-3.5,3.53-7.12,7.23-7.12s5.49,3.62,7.22,7.12c1.67,3.38,3.25,6.57,6.33,6.57s4.66-3.19,6.33-6.57c1.73-3.5,3.52-7.12,7.22-7.12s5.5,3.62,7.23,7.12c1.67,3.38,3.25,6.57,6.33,6.57s4.66-3.19,6.33-6.57c1.73-3.5,3.52-7.12,7.22-7.12s5.49,3.62,7.23,7.12c1.67,3.38,3.25,6.57,6.33,6.57s4.65-3.19,6.33-6.57c1.73-3.5,3.52-7.12,7.22-7.12s5.49,3.62,7.23,7.12c1.67,3.38,3.25,6.57,6.32,6.57s4.66-3.19,6.33-6.57c1.74-3.5,3.53-7.12,7.23-7.12s5.49,3.62,7.23,7.12c1.67,3.38,3.25,6.57,6.32,6.57s4.66-3.19,6.34-6.57c1.73-3.5,3.52-7.12,7.22-7.12s5.49,3.62,7.23,7.12c1.67,3.38,3.25,6.57,6.33,6.57s4.66-3.19,6.33-6.57c1.73-3.5,3.52-7.12,7.22-7.12s5.5,3.62,7.23,7.12c1.67,3.38,3.25,6.57,6.33,6.57s4.66-3.19,6.33-6.57c1.73-3.5,3.53-7.12,7.22-7.12s5.5,3.62,7.23,7.12c1.67,3.38,3.25,6.57,6.33,6.57s4.66-3.19,6.33-6.57c1.74-3.5,3.53-7.12,7.23-7.12s5.49,3.62,7.22,7.12c1.68,3.38,3.25,6.57,6.33,6.57s4.66-3.19,6.33-6.57c1.74-3.5,3.53-7.12,7.23-7.12s5.49,3.62,7.23,7.12c1.67,3.38,3.25,6.57,6.33,6.57s4.66-3.19,6.33-6.57c1.73-3.5,3.53-7.12,7.22-7.12s5.5,3.62,7.23,7.12c1.67,3.38,3.25,6.57,6.33,6.57s4.66-3.19,6.33-6.57c1.74-3.5,3.53-7.12,7.23-7.12s5.49,3.62,7.23,7.12c1.67,3.38,3.25,6.57,6.33,6.57s4.65-3.19,6.32-6.57c1.74-3.5,3.53-7.12,7.23-7.12s5.49,3.62,7.22,7.12c1.68,3.38,3.25,6.57,6.33,6.57s4.66-3.19,6.34-6.57c1.73-3.5,3.52-7.12,7.22-7.12s5.49,3.62,7.23,7.12c1.67,3.38,3.25,6.57,6.33,6.57s4.66-3.19,6.33-6.57c1.73-3.5,3.52-7.12,7.22-7.12s5.5,3.62,7.23,7.12c1.67,3.38,3.25,6.57,6.33,6.57s4.66-3.19,6.33-6.57c1.74-3.5,3.53-7.12,7.23-7.12s5.49,3.62,7.23,7.12c1.67,3.38,3.25,6.57,6.33,6.57s4.66-3.19,6.33-6.57c1.74-3.5,3.53-7.12,7.23-7.12s5.49,3.62,7.23,7.12c1.67,3.38,3.25,6.57,6.33,6.57s4.66-3.19,6.33-6.57c1.73-3.5,3.52-7.12,7.22-7.12s5.5,3.62,7.23,7.12c1.67,3.38,3.25,6.57,6.33,6.57s4.66-3.19,6.34-6.57c1.73-3.5,3.52-7.12,7.22-7.12s5.5,3.62,7.23,7.12c1.67,3.38,3.25,6.57,6.33,6.57s4.67-3.19,6.34-6.57c1.73-3.5,3.53-7.12,7.23-7.12s5.5,3.62,7.23,7.12c1.68,3.38,3.26,6.57,6.34,6.57Z"/>
  </g>
</svg>